<?xml version="1.0" encoding="UTF-8" standalone="no"?>
<!-- Created with Inkscape (http://www.inkscape.org/) -->

<svg
   width="1024px"
   height="1024px"
   viewBox="0 0 1024 1024"
   version="1.1"
   id="SVGRoot"
   sodipodi:docname="0濯.svg"
   inkscape:version="1.1.1 (3bf5ae0d25, 2021-09-20)"
   xmlns:inkscape="http://www.inkscape.org/namespaces/inkscape"
   xmlns:sodipodi="http://sodipodi.sourceforge.net/DTD/sodipodi-0.dtd"
   xmlns="http://www.w3.org/2000/svg"
   xmlns:svg="http://www.w3.org/2000/svg">
  <sodipodi:namedview
     id="namedview829"
     pagecolor="#ffffff"
     bordercolor="#999999"
     borderopacity="1"
     inkscape:pageshadow="0"
     inkscape:pageopacity="0"
     inkscape:pagecheckerboard="0"
     inkscape:document-units="px"
     showgrid="false"
     inkscape:zoom="0.35723204"
     inkscape:cx="-82.579378"
     inkscape:cy="789.40287"
     inkscape:window-width="1920"
     inkscape:window-height="998"
     inkscape:window-x="-9"
     inkscape:window-y="-9"
     inkscape:window-maximized="1"
     inkscape:current-layer="layer1"
     showguides="true"
     inkscape:guide-bbox="true">
    <sodipodi:guide
       position="795.00147,942.82027"
       orientation="0,-1"
       id="guide914" />
    <sodipodi:guide
       position="789.40287,72.237674"
       orientation="0,-1"
       id="guide916" />
    <sodipodi:guide
       position="75.581126,707.67899"
       orientation="1,0"
       id="guide918" />
    <sodipodi:guide
       position="946.16372,542.52024"
       orientation="1,0"
       id="guide920" />
  </sodipodi:namedview>
  <defs
     id="defs824" />
  <g
     inkscape:groupmode="layer"
     id="layer2"
     inkscape:label="圖層 2"
     sodipodi:insensitive="true"
     style="display:none">
    <text
       xml:space="preserve"
       style="font-style:normal;font-variant:normal;font-weight:normal;font-stretch:normal;font-size:983.237px;line-height:1.25;font-family:DragonClaw;-inkscape-font-specification:'DragonClaw, Normal';font-variant-ligatures:normal;font-variant-caps:normal;font-variant-numeric:normal;font-variant-east-asian:normal;opacity:0.5;fill:#000000;fill-opacity:1;stroke:none;stroke-width:24.581"
       x="9.1708765"
       y="845.96893"
       id="text2499"><tspan
         sodipodi:role="line"
         id="tspan2497"
         x="9.1708765"
         y="845.96893"
         style="font-style:normal;font-variant:normal;font-weight:normal;font-stretch:normal;font-size:983.237px;font-family:DragonClaw;-inkscape-font-specification:'DragonClaw, Normal';font-variant-ligatures:normal;font-variant-caps:normal;font-variant-numeric:normal;font-variant-east-asian:normal;stroke-width:24.581">濯</tspan></text>
  </g>
  <g
     inkscape:label="圖層 1"
     inkscape:groupmode="layer"
     id="layer1"
     style="display:inline">
    <path
       style="font-variation-settings:normal;display:inline;opacity:1;vector-effect:none;fill:#000000;fill-opacity:1;stroke:none;stroke-width:9.56254;stroke-linecap:butt;stroke-linejoin:miter;stroke-miterlimit:4;stroke-dasharray:none;stroke-dashoffset:0;stroke-opacity:1;-inkscape-stroke:none;stop-color:#000000"
       d="m 163.74996,161.93917 c 16.58533,-13.26806 79.69249,-18.58676 89.64426,-13.61135 9.95079,4.9754 15.99838,32.77981 23.13566,49.55415 15.02955,35.32311 44.72218,67.65705 41.40494,107.46217 -3.31726,39.80512 -39.80512,24.87795 -69.65849,26.53611 -29.85431,1.65909 -88.36349,54.95154 -88.36349,54.95154 0,0 1.53477,33.1345 61.23449,14.95375 41.25162,-12.56263 37.88956,-35.58262 54.30848,-27.37316 16.41796,8.20945 29.31883,50.42817 22.28173,70.36516 -7.03613,19.93697 -27.46889,21.29635 -85.21818,19.15815 -55.97159,-2.0722 -107.60463,-31.31164 -110.92189,-72.77492 -3.31726,-41.46328 31.44361,-23.89972 50.94742,-34.46539 28.14549,-15.24559 76.8119,-56.68239 75.63954,-70.7556 -3.92162,-47.07266 -74.92268,-115.47847 -64.43447,-124.00061 z"
       id="path919"
       sodipodi:nodetypes="csasscsssssssc" />
    <path
       style="font-variation-settings:normal;display:inline;opacity:1;vector-effect:none;fill:#000000;fill-opacity:1;stroke:none;stroke-width:9.56254;stroke-linecap:butt;stroke-linejoin:miter;stroke-miterlimit:4;stroke-dasharray:none;stroke-dashoffset:0;stroke-opacity:1;-inkscape-stroke:none;stop-color:#000000"
       d="m 216.9489,438.98055 29.68406,16.21955 c -94.33603,172.99567 -63.54053,276.53743 -63.54053,276.53743 0,0 72.18125,-186.80648 144.70348,-400.35289 -4.75491,130.75848 -108.63002,414.61096 -114.03914,476.84761 -3.94326,45.37062 -13.20097,77.09859 -29.88213,75.64879 l -0.55791,0.12426 c -23.18007,5.15085 -87.125796,-184.26709 33.63018,-445.02397 z"
       id="path1353"
       sodipodi:nodetypes="ccccscscc" />
    <path
       style="font-variation-settings:normal;display:inline;opacity:1;vector-effect:none;fill:#000000;fill-opacity:1;stroke:none;stroke-width:8.89544;stroke-linecap:butt;stroke-linejoin:miter;stroke-miterlimit:4;stroke-dasharray:none;stroke-dashoffset:0;stroke-opacity:1;-inkscape-stroke:none;stop-color:#000000"
       d="m 490.44955,219.11532 c 4.12202,1.98523 7.56979,82.52155 7.56979,104.67112 0,50.19132 5.07795,95.54592 16.89949,107.19434 14.86211,14.64445 31.81101,-34.57402 31.81101,-101.63613 0,-53.00767 -3.19038,-96.76698 14.79514,-112.64865 17.98561,-15.88168 28.20483,-11.75011 28.20483,-24.45528 0,-12.70515 -52.35298,-57.08052 -68.08997,-55.4918 -15.73708,1.58779 -23.14685,28.58128 -114.30208,53.00625 -24.72281,6.62446 -60.48268,15.03229 -83.93245,0.79667 11.9232,27.16588 28.12163,51.06314 43.93977,57.26216 12.82355,5.02547 62.02497,-22.51928 123.10447,-28.69868 z"
       id="path2539"
       sodipodi:nodetypes="cssssssscsc" />
    <path
       style="font-variation-settings:normal;display:inline;opacity:1;vector-effect:none;fill:#000000;fill-opacity:1;stroke:none;stroke-width:9.56254;stroke-linecap:butt;stroke-linejoin:miter;stroke-miterlimit:4;stroke-dasharray:none;stroke-dashoffset:0;stroke-opacity:1;-inkscape-stroke:none;stop-color:#000000"
       d="m 598.27535,180.07628 c 0,0 28.50269,55.12003 43.42983,55.9491 14.92622,0.83194 108.48864,-29.46563 115.12314,-26.14837 6.63357,3.31726 0.4475,73.0784 -2.22978,127.92128 -3.62469,74.24981 2.18493,97.61258 15.45301,106.73433 13.269,9.12172 30.52035,-34.79449 38.99127,-96.39578 8.23528,-59.8877 23.58454,-120.97469 30.21904,-127.60824 6.63358,-6.6345 30.2374,-6.6345 30.2374,-23.21982 0,-16.58531 -55.56132,-81.26837 -83.75654,-77.95113 -28.19522,3.31725 -36.51847,33.88493 -89.561,48.09778 -41.04638,10.99788 -97.90637,12.62085 -97.90637,12.62085 z"
       id="path2783"
       sodipodi:nodetypes="csssssssssc" />
    <path
       style="font-variation-settings:normal;display:inline;opacity:1;vector-effect:none;fill:#000000;fill-opacity:1;stroke:none;stroke-width:9.56254;stroke-linecap:butt;stroke-linejoin:miter;stroke-miterlimit:4;stroke-dasharray:none;stroke-dashoffset:0;stroke-opacity:1;-inkscape-stroke:none;stop-color:#000000"
       d="m 345.04055,296.61137 c 0,0 18.04722,32.2125 26.61728,36.24907 8.57008,4.03657 48.19371,-11.99351 72.53611,-16.98756 18.16446,-3.7271 47.18571,-11.03355 48.74081,-17.40207 1.55607,-6.36843 -15.43866,-25.73794 -32.38248,-21.93404 -29.18128,6.55176 -82.36846,23.78281 -115.51172,20.0746 z"
       id="path3042"
       sodipodi:nodetypes="cssssc" />
    <path
       style="font-variation-settings:normal;display:inline;opacity:1;vector-effect:none;fill:#000000;fill-opacity:1;stroke:none;stroke-width:10.3716;stroke-linecap:butt;stroke-linejoin:miter;stroke-miterlimit:4;stroke-dasharray:none;stroke-dashoffset:0;stroke-opacity:1;-inkscape-stroke:none;stop-color:#000000"
       d="m 337.9082,381.84409 c 0,0 19.25033,34.15272 32.15287,37.18557 12.90143,3.03379 84.64015,-21.80049 100.52839,-25.0244 15.88832,-3.22499 31.1909,-9.70102 31.74148,-16.81343 0.55058,-7.11241 -18.384,-21.18552 -54.34965,-14.36671 -9.5229,1.80444 -83.84804,27.72425 -110.07309,19.01897 z"
       id="path3044"
       sodipodi:nodetypes="cccscc" />
    <path
       style="font-variation-settings:normal;display:inline;opacity:1;vector-effect:none;fill:#000000;fill-opacity:1;stroke:none;stroke-width:9.56254;stroke-linecap:butt;stroke-linejoin:miter;stroke-miterlimit:4;stroke-dasharray:none;stroke-dashoffset:0;stroke-opacity:1;-inkscape-stroke:none;stop-color:#000000"
       d="m 581.74488,289.80023 c 0,0 17.786,29.01321 43.84574,27.16576 26.05982,-1.84842 108.5713,-16.27326 108.54762,-22.74975 -0.0208,-6.47624 -32.37713,-26.95666 -48.35381,-25.99519 -15.97565,0.96153 -91.34026,24.45177 -104.03955,21.57918 z"
       id="path3046"
       sodipodi:nodetypes="csssc" />
    <path
       style="font-variation-settings:normal;display:inline;opacity:1;vector-effect:none;fill:#000000;fill-opacity:1;stroke:none;stroke-width:9.56254;stroke-linecap:butt;stroke-linejoin:miter;stroke-miterlimit:4;stroke-dasharray:none;stroke-dashoffset:0;stroke-opacity:1;-inkscape-stroke:none;stop-color:#000000"
       d="m 575.70296,365.97492 c 0,0 18.76459,23.45506 28.73268,29.90501 9.96891,6.44994 44.18923,0.38577 65.80633,-3.51807 25.24611,-4.5592 73.43629,-9.76418 73.43629,-23.03223 0,-13.26901 -18.24351,-22.39075 -31.51251,-24.04888 -13.26799,-1.65911 -78.45629,21.48022 -136.46279,20.69417 z"
       id="path3048"
       sodipodi:nodetypes="csassc" />
    <path
       style="font-variation-settings:normal;display:inline;opacity:1;vector-effect:none;fill:#000000;fill-opacity:1;stroke:none;stroke-width:9.56254;stroke-linecap:butt;stroke-linejoin:miter;stroke-miterlimit:4;stroke-dasharray:none;stroke-dashoffset:0;stroke-opacity:1;-inkscape-stroke:none;stop-color:#000000"
       d="m 407.30447,401.98449 c 10.55516,-5.27759 44.28134,11.28382 58.35459,23.5985 14.07321,12.31372 29.6028,21.55306 29.6028,30.3487 0,8.79565 -25.86913,26.46012 -44.96698,50.34593 -40.21297,50.29464 -147.2987,189.40471 -169.58043,181.19622 -22.28268,-8.20945 76.65687,-96.68589 117.97892,-235.14342 9.77808,-32.76337 0.40163,-44.48216 8.6111,-50.34593 z"
       id="path3163"
       sodipodi:nodetypes="csssssc" />
    <path
       style="font-variation-settings:normal;display:inline;opacity:1;vector-effect:none;fill:#000000;fill-opacity:1;stroke:none;stroke-width:8.70973;stroke-linecap:butt;stroke-linejoin:miter;stroke-miterlimit:4;stroke-dasharray:none;stroke-dashoffset:0;stroke-opacity:1;-inkscape-stroke:none;stop-color:#000000"
       d="m 368.03689,474.87783 c 8.41369,-8.21968 60.40715,3.44037 74.6464,13.64474 14.23851,10.20788 -3.26134,30.03644 -3.49961,54.62607 -0.23907,24.59053 2.13307,120.57801 2.17122,197.49367 0.0346,68.16354 -7.72085,188.78628 -31.37091,189.58475 -33.60571,1.13458 -24.46992,-123.25946 -25.54245,-218.34517 -1.07337,-95.08484 -6.43392,-176.28629 -8.04176,-192.26357 -1.60875,-15.97814 -11.59948,-41.9253 -8.36289,-44.74049 z"
       id="path3255"
       sodipodi:nodetypes="cssssssc" />
    <path
       style="font-variation-settings:normal;display:inline;opacity:1;vector-effect:none;fill:#000000;fill-opacity:1;stroke:none;stroke-width:9.56254;stroke-linecap:butt;stroke-linejoin:miter;stroke-miterlimit:4;stroke-dasharray:none;stroke-dashoffset:0;stroke-opacity:1;-inkscape-stroke:none;stop-color:#000000"
       d="m 540.75621,409.67389 c 0,0 47.05141,-3.07043 58.62941,4.23486 11.57688,7.3046 35.19519,44.80894 37.72575,59.29586 2.53148,14.48669 0.20835,26.59392 -4.75493,28.48152 -4.96391,1.88481 -48.66987,-21.94738 -57.72061,-33.53908 -9.05084,-11.5917 -6.82225,-35.78702 -33.87962,-58.47316 z"
       id="path3779" />
    <path
       style="font-variation-settings:normal;display:inline;opacity:1;vector-effect:none;fill:#000000;fill-opacity:1;stroke:none;stroke-width:9.56254;stroke-linecap:butt;stroke-linejoin:miter;stroke-miterlimit:4;stroke-dasharray:none;stroke-dashoffset:0;stroke-opacity:1;-inkscape-stroke:none;stop-color:#000000"
       d="m 425.77176,506.87329 c 0,0 27.34193,45.40267 35.65748,49.90328 8.31558,4.50064 90.20833,-14.57496 162.71124,-24.46078 96.47795,-13.154 198.64592,-6.84624 204.96934,-18.40724 8.30945,-15.19189 -19.35052,-44.58478 -44.53106,-48.82797 -30.61945,-5.15925 -67.01751,-0.39613 -67.01751,-0.39613 11.23986,4.13946 11.72281,12.33995 11.72281,12.33995 0,0 -91.7513,17.64475 -157.45534,25.12767 -59.3304,6.75611 -133.05221,9.11359 -146.05696,4.72122 z"
       id="path3781"
       sodipodi:nodetypes="cssssccsc" />
    <path
       style="font-variation-settings:normal;display:inline;opacity:1;vector-effect:none;fill:#000000;fill-opacity:1;stroke:none;stroke-width:9.56254;stroke-linecap:butt;stroke-linejoin:miter;stroke-miterlimit:4;stroke-dasharray:none;stroke-dashoffset:0;stroke-opacity:1;-inkscape-stroke:none;stop-color:#000000"
       d="m 430.56625,609.29137 c 0,0 27.96319,30.61447 40.53176,38.22667 12.5695,7.61319 90.25226,-8.13951 159.28967,-16.78211 70.68161,-8.84768 143.58096,3.49157 144.53559,-17.60001 0.95446,-21.08777 -33.79318,-35.766 -45.35366,-37.11915 -11.56045,-1.35603 -53.4903,17.52391 -96.75191,21.73505 -45.94148,4.472 -181.16383,16.38898 -202.25145,11.53955 z"
       id="path4443"
       sodipodi:nodetypes="csssssc" />
    <path
       style="font-variation-settings:normal;display:inline;opacity:1;vector-effect:none;fill:#000000;fill-opacity:1;stroke:none;stroke-width:9.56254;stroke-linecap:butt;stroke-linejoin:miter;stroke-miterlimit:4;stroke-dasharray:none;stroke-dashoffset:0;stroke-opacity:1;-inkscape-stroke:none;stop-color:#000000"
       d="m 430.43768,702.97357 c 0,0 34.85242,47.2503 46.46567,53.87899 11.61323,6.62773 55.62484,-12.2588 165.91806,-27.58658 53.89852,-7.49044 135.65075,-4.33021 138.96163,-15.1127 3.3118,-10.78248 -29.87039,-33.98473 -44.79919,-37.29449 -14.92788,-3.30978 -73.44829,17.56805 -136.4699,24.23316 -74.97267,7.93031 -151.83075,6.01881 -170.07627,1.88354 z"
       id="path4445"
       sodipodi:nodetypes="ccsccccc" />
    <path
       style="font-variation-settings:normal;display:inline;opacity:1;vector-effect:none;fill:#000000;fill-opacity:1;stroke:none;stroke-width:8.61377;stroke-linecap:butt;stroke-linejoin:miter;stroke-miterlimit:4;stroke-dasharray:none;stroke-dashoffset:0;stroke-opacity:1;-inkscape-stroke:none;stop-color:#000000"
       d="m 395.3865,817.86265 c 0,0 6.35462,35.47145 15.84686,47.46455 9.49132,11.99226 54.1425,-3.64981 173.2352,-13.38308 200.59332,-16.39419 271.70108,14.10896 295.03443,-18.34149 20.141,-28.0113 -10.28222,-14.10896 -37.17541,-34.56711 -26.89338,-20.45817 -30.84815,-73.36677 -30.84815,-73.36677 0,0 -11.86458,51.51838 -49.04096,62.1001 -37.17533,10.58172 -77.48291,7.91025 -187.32532,18.78484 -88.7337,8.78392 -154.45417,18.1438 -179.72665,11.30896 z"
       id="path4651"
       sodipodi:nodetypes="csssscssc" />
    <path
       style="font-variation-settings:normal;display:inline;opacity:1;vector-effect:none;fill:#000000;fill-opacity:1;stroke:none;stroke-width:8.95766;stroke-linecap:butt;stroke-linejoin:miter;stroke-miterlimit:4;stroke-dasharray:none;stroke-dashoffset:0;stroke-opacity:1;-inkscape-stroke:none;stop-color:#000000"
       d="m 575.4959,518.49119 61.49692,-8.49327 c 0,0 3.6316,58.2432 3.6316,142.60268 0,84.35948 -1.11625,173.04531 -1.11625,173.04531 l -60.31466,8.65149 c 0,0 3.21241,-81.56215 2.09677,-152.94259 -1.11563,-71.38168 -5.79438,-162.86362 -5.79438,-162.86362 z"
       id="path4653"
       sodipodi:nodetypes="ccsccsc" />
  </g>
</svg>
