<?xml version="1.0" encoding="UTF-8" standalone="no"?>
<!-- Created with Inkscape (http://www.inkscape.org/) -->

<svg
   width="1024px"
   height="1024px"
   viewBox="0 0 1024 1024"
   version="1.1"
   id="SVGRoot"
   sodipodi:docname="濯.svg"
   inkscape:version="1.1.1 (3bf5ae0d25, 2021-09-20)"
   xmlns:inkscape="http://www.inkscape.org/namespaces/inkscape"
   xmlns:sodipodi="http://sodipodi.sourceforge.net/DTD/sodipodi-0.dtd"
   xmlns="http://www.w3.org/2000/svg"
   xmlns:svg="http://www.w3.org/2000/svg">
  <sodipodi:namedview
     id="namedview829"
     pagecolor="#ffffff"
     bordercolor="#999999"
     borderopacity="1"
     inkscape:pageshadow="0"
     inkscape:pageopacity="0"
     inkscape:pagecheckerboard="0"
     inkscape:document-units="px"
     showgrid="false"
     inkscape:zoom="0.5052024"
     inkscape:cx="436.45873"
     inkscape:cy="579.96557"
     inkscape:window-width="1920"
     inkscape:window-height="998"
     inkscape:window-x="-9"
     inkscape:window-y="-9"
     inkscape:window-maximized="1"
     inkscape:current-layer="layer1"
     showguides="true"
     inkscape:guide-bbox="true">
    <sodipodi:guide
       position="795.00147,942.82027"
       orientation="0,-1"
       id="guide914" />
    <sodipodi:guide
       position="789.40287,72.237674"
       orientation="0,-1"
       id="guide916" />
    <sodipodi:guide
       position="75.581126,707.67899"
       orientation="1,0"
       id="guide918" />
    <sodipodi:guide
       position="946.16372,542.52024"
       orientation="1,0"
       id="guide920" />
  </sodipodi:namedview>
  <defs
     id="defs824" />
  <g
     inkscape:label="圖層 1"
     inkscape:groupmode="layer"
     id="layer1">
    <path
       style="font-variation-settings:normal;display:inline;opacity:1;vector-effect:none;fill:#000000;fill-opacity:1;stroke:none;stroke-width:9.56254;stroke-linecap:butt;stroke-linejoin:miter;stroke-miterlimit:4;stroke-dasharray:none;stroke-dashoffset:0;stroke-opacity:1;-inkscape-stroke:none;stop-color:#000000"
       d="m 207.29686,187.67143 c 16.58533,-13.26806 79.69249,-18.58676 89.64426,-13.61135 9.95079,4.9754 15.99816,32.77951 23.13566,49.55415 15.02947,35.32315 44.72218,67.65705 41.40494,107.46217 -3.31726,39.80512 -39.80512,24.87795 -69.65849,26.53611 -29.85431,1.65909 -115.08545,67.81768 -115.08545,67.81768 0,0 0.54507,43.03152 87.95645,7.03613 39.87399,-16.41892 71.53944,-50.42816 87.95836,-42.2187 16.41796,8.20945 29.31883,50.42817 22.28173,70.36516 -7.03613,19.93697 -87.84073,44.05951 -145.59002,41.92131 -55.97159,-2.0722 -107.60463,-31.31164 -110.92189,-72.77492 -3.31726,-41.46328 31.44361,-23.89972 50.94742,-34.46539 28.14549,-15.24559 103.53386,-69.54853 102.3615,-83.62174 -3.92162,-47.07266 -74.92268,-115.47847 -64.43447,-124.00061 z"
       id="path919"
       sodipodi:nodetypes="csasscsssssssc" />
    <path
       style="font-variation-settings:normal;display:inline;opacity:1;vector-effect:none;fill:#000000;fill-opacity:1;stroke:none;stroke-width:9.56254;stroke-linecap:butt;stroke-linejoin:miter;stroke-miterlimit:4;stroke-dasharray:none;stroke-dashoffset:0;stroke-opacity:1;-inkscape-stroke:none;stop-color:#000000"
       d="m 240.84522,481.12064 30.97696,13.58842 c -86.54789,185.14362 -33.09699,238.73224 -33.09699,238.73224 0,0 55.73538,-192.35477 109.49516,-411.37858 6.58478,130.67911 -72.32263,422.45966 -72.32263,484.93093 0,45.54165 -6.47575,77.95205 -23.2198,77.95205 l -0.54505,0.1721 C 229.48584,892.25637 159.79675,703.21403 240.8433,481.12159 Z"
       id="path1353"
       sodipodi:nodetypes="ccccscscc" />
    <path
       style="font-variation-settings:normal;display:inline;opacity:1;vector-effect:none;fill:#000000;fill-opacity:1;stroke:none;stroke-width:9.56254;stroke-linecap:butt;stroke-linejoin:miter;stroke-miterlimit:4;stroke-dasharray:none;stroke-dashoffset:0;stroke-opacity:1;-inkscape-stroke:none;stop-color:#000000"
       d="m 371.43251,210.00289 c 70.48852,77.95113 100.75691,55.56135 105.31727,57.6345 4.56136,2.07318 -5.80542,65.09714 -11.6099,87.4879 -5.80542,22.38978 -20.37973,81.42807 -15.75623,98.68277 7.14421,26.66232 53.07319,-32.34154 69.65849,-92.87831 14.62687,-53.38874 15.75626,-102.00003 35.65875,-118.58533 19.90258,-16.58531 68.00037,-24.87796 68.00037,-38.14602 0,-13.26805 -68.00037,-58.87861 -85.41468,-57.2195 -17.4144,1.65814 -47.26873,50.585 -72.97577,62.19489 -25.70704,11.60991 -92.8783,0.83196 -92.8783,0.83196 z"
       id="path2539"
       sodipodi:nodetypes="ssssssssscs" />
    <path
       style="font-variation-settings:normal;display:inline;opacity:1;vector-effect:none;fill:#000000;fill-opacity:1;stroke:none;stroke-width:9.56254;stroke-linecap:butt;stroke-linejoin:miter;stroke-miterlimit:4;stroke-dasharray:none;stroke-dashoffset:0;stroke-opacity:1;-inkscape-stroke:none;stop-color:#000000"
       d="m 563.82264,184.29584 c 0,0 48.0978,57.21951 63.02494,58.04858 14.92622,0.83194 53.90227,-27.36615 60.53677,-24.04889 6.63357,3.31726 -14.09711,72.97575 -37.31698,122.73262 -23.21979,49.75593 -29.85429,97.85273 -16.58621,106.97448 13.269,9.12172 55.56132,-40.63324 82.92752,-94.53645 27.3661,-53.90226 53.07314,-118.58534 59.70764,-125.21889 6.63358,-6.6345 54.73128,-6.6345 54.73128,-23.21982 0,-16.58531 -55.56132,-81.26837 -83.75654,-77.95113 -28.19522,3.31725 -36.51847,33.88493 -89.561,48.09778 -41.04638,10.99788 -93.70742,9.12172 -93.70742,9.12172 z"
       id="path2783"
       sodipodi:nodetypes="csssssssssc" />
    <path
       style="font-variation-settings:normal;display:inline;opacity:1;vector-effect:none;fill:#000000;fill-opacity:1;stroke:none;stroke-width:9.56254;stroke-linecap:butt;stroke-linejoin:miter;stroke-miterlimit:4;stroke-dasharray:none;stroke-dashoffset:0;stroke-opacity:1;-inkscape-stroke:none;stop-color:#000000"
       d="m 362.6206,321.64101 c 0,0 19.937,31.07834 28.73265,34.5964 8.79564,3.51806 32.87799,-11.15377 56.87907,-17.5913 17.90972,-4.80422 34.01022,-9.38278 35.18258,-15.83274 1.17333,-6.44993 -21.42779,-24.74408 -38.11446,-19.93602 -28.73838,8.28117 -49.37437,20.4878 -82.67984,18.76366 z"
       id="path3042"
       sodipodi:nodetypes="cssssc" />
    <path
       style="font-variation-settings:normal;display:inline;opacity:1;vector-effect:none;fill:#000000;fill-opacity:1;stroke:none;stroke-width:9.56254;stroke-linecap:butt;stroke-linejoin:miter;stroke-miterlimit:4;stroke-dasharray:none;stroke-dashoffset:0;stroke-opacity:1;-inkscape-stroke:none;stop-color:#000000"
       d="m 360.27492,409.59842 c 0,0 20.52316,29.3188 32.83784,31.07737 12.3137,1.75952 46.91011,-17.5913 61.56951,-21.69554 14.6594,-4.10521 17.0051,-7.62329 17.0051,-14.07323 0,-6.44995 -31.6645,-14.6594 -40.46014,-12.31372 -8.79566,2.34474 -45.73775,22.86889 -70.95231,17.00512 z"
       id="path3044" />
    <path
       style="font-variation-settings:normal;display:inline;opacity:1;vector-effect:none;fill:#000000;fill-opacity:1;stroke:none;stroke-width:9.56254;stroke-linecap:butt;stroke-linejoin:miter;stroke-miterlimit:4;stroke-dasharray:none;stroke-dashoffset:0;stroke-opacity:1;-inkscape-stroke:none;stop-color:#000000"
       d="m 540.88019,304.63591 c 0,0 20.23911,27.35849 46.03985,23.25424 25.80074,-4.10522 80.61917,-19.14999 80.03297,-25.59994 -0.58333,-6.44995 -34.59643,-24.0422 -50.42919,-21.69649 -15.83173,2.34568 -62.7428,25.80075 -75.64363,24.04219 z"
       id="path3046"
       sodipodi:nodetypes="csssc" />
    <path
       style="font-variation-settings:normal;display:inline;opacity:1;vector-effect:none;fill:#000000;fill-opacity:1;stroke:none;stroke-width:9.56254;stroke-linecap:butt;stroke-linejoin:miter;stroke-miterlimit:4;stroke-dasharray:none;stroke-dashoffset:0;stroke-opacity:1;-inkscape-stroke:none;stop-color:#000000"
       d="m 525.63455,386.72954 c 0,0 18.76459,23.45506 28.73268,29.90501 9.96891,6.44994 31.6052,-0.10522 46.91105,-3.51807 20.44669,-4.55274 58.73996,-9.06435 58.73996,-22.3324 0,-13.26901 -18.24351,-22.39075 -31.51251,-24.04888 -13.26799,-1.65911 -44.86468,20.78039 -102.87118,19.99434 z"
       id="path3048"
       sodipodi:nodetypes="csassc" />
    <path
       style="font-variation-settings:normal;display:inline;opacity:1;vector-effect:none;fill:#000000;fill-opacity:1;stroke:none;stroke-width:9.56254;stroke-linecap:butt;stroke-linejoin:miter;stroke-miterlimit:4;stroke-dasharray:none;stroke-dashoffset:0;stroke-opacity:1;-inkscape-stroke:none;stop-color:#000000"
       d="m 419.90132,431.37715 c 10.55516,-5.27759 44.28134,11.28382 58.35459,23.5985 14.07321,12.31372 29.6028,21.55306 29.6028,30.3487 0,8.79565 -28.54805,24.54518 -44.96698,50.34593 C 446.47282,561.47104 272.90369,790.15874 250.62196,781.95025 228.33928,773.7408 368.56852,586.589 411.29022,481.72308 c 12.89992,-31.66451 0.40163,-44.48216 8.6111,-50.34593 z"
       id="path3163"
       sodipodi:nodetypes="csssssc" />
    <path
       style="font-variation-settings:normal;display:inline;opacity:1;vector-effect:none;fill:#000000;fill-opacity:1;stroke:none;stroke-width:9.56254;stroke-linecap:butt;stroke-linejoin:miter;stroke-miterlimit:4;stroke-dasharray:none;stroke-dashoffset:0;stroke-opacity:1;-inkscape-stroke:none;stop-color:#000000"
       d="m 362.72484,474.53969 c 9.53676,-8.70768 66.15667,6.01293 81.40322,17.73759 15.24559,11.72848 -4.69138,32.83784 -5.86377,59.81096 -1.17332,26.97407 -9.69164,131.04536 -12.49921,215.4455 -2.48721,74.79642 -3.73992,213.78641 -29.72045,213.78641 -36.91722,0 -34.0102,-143.07706 -31.66451,-247.45333 2.34474,-104.37536 7.03614,-192.33278 5.86376,-209.92405 -1.17333,-17.59225 -11.17481,-46.43391 -7.51904,-49.40308 z"
       id="path3255"
       sodipodi:nodetypes="cssssssc" />
    <path
       style="font-variation-settings:normal;display:inline;opacity:1;vector-effect:none;fill:#000000;fill-opacity:1;stroke:none;stroke-width:9.56254;stroke-linecap:butt;stroke-linejoin:miter;stroke-miterlimit:4;stroke-dasharray:none;stroke-dashoffset:0;stroke-opacity:1;-inkscape-stroke:none;stop-color:#000000"
       d="m 510.97521,371.483 c 0,0 46.32385,8.79564 55.70665,18.76462 9.38188,9.96802 22.86891,52.18769 21.69558,66.84709 -1.17239,14.6594 -6.44994,25.80074 -11.72759,26.38693 -5.27756,0.58333 -41.63342,-33.42307 -47.49717,-46.9101 -5.86385,-13.48705 2.34563,-36.3559 -18.17747,-65.08854 z"
       id="path3779" />
    <path
       style="font-variation-settings:normal;display:inline;opacity:1;vector-effect:none;fill:#000000;fill-opacity:1;stroke:none;stroke-width:9.56254;stroke-linecap:butt;stroke-linejoin:miter;stroke-miterlimit:4;stroke-dasharray:none;stroke-dashoffset:0;stroke-opacity:1;-inkscape-stroke:none;stop-color:#000000"
       d="m 450.67843,480.26575 c 0,0 26.28653,46.02175 34.49597,50.71313 8.20947,4.6914 72.71086,-12.89988 145.42266,-21.10935 96.7559,-10.92331 144.69782,1.44299 151.28644,-9.96896 8.65794,-14.99602 -18.31613,-45.0196 -43.39201,-49.84295 -30.49219,-5.86472 -66.9905,-1.94311 -66.9905,-1.94311 11.1413,4.39783 11.43482,12.60728 11.43482,12.60728 0,0 -38.08097,11.82029 -103.94024,17.78445 -59.47056,5.38468 -115.41725,6.45092 -128.31714,1.75951 z"
       id="path3781"
       sodipodi:nodetypes="cssssccsc" />
    <path
       style="font-variation-settings:normal;display:inline;opacity:1;vector-effect:none;fill:#000000;fill-opacity:1;stroke:none;stroke-width:9.56254;stroke-linecap:butt;stroke-linejoin:miter;stroke-miterlimit:4;stroke-dasharray:none;stroke-dashoffset:0;stroke-opacity:1;-inkscape-stroke:none;stop-color:#000000"
       d="m 461.13317,566.74862 c 0,0 29.31882,29.31881 42.21872,36.35494 12.90087,7.03708 40.49168,-7.00839 109.06771,-18.76366 70.20928,-12.03449 111.99865,-0.58333 111.99865,-21.6965 0,-21.10936 -35.37577,-34.20147 -46.98561,-35.03053 -11.60994,-0.83194 -19.07254,17.41438 -63.85313,28.61023 -44.7805,11.19489 -131.16102,14.41652 -152.44634,10.52552 z"
       id="path4443"
       sodipodi:nodetypes="csssssc" />
    <path
       style="font-variation-settings:normal;display:inline;opacity:1;vector-effect:none;fill:#000000;fill-opacity:1;stroke:none;stroke-width:9.56254;stroke-linecap:butt;stroke-linejoin:miter;stroke-miterlimit:4;stroke-dasharray:none;stroke-dashoffset:0;stroke-opacity:1;-inkscape-stroke:none;stop-color:#000000"
       d="m 455.1891,639.56465 c 0,0 34.82875,47.26775 46.43867,53.90225 11.60991,6.63355 65.51217,-19.07348 119.41536,-26.53706 53.90225,-7.46358 102.00005,1.6591 105.31633,-9.12174 3.3172,-10.78082 -29.85336,-33.99968 -44.7805,-37.31692 -14.92622,-3.31726 -39.80423,11.6099 -102.82917,18.24345 -63.02392,6.6345 -105.31725,4.97635 -123.56069,0.83194 z"
       id="path4445" />
    <path
       style="font-variation-settings:normal;display:inline;opacity:1;vector-effect:none;fill:#000000;fill-opacity:1;stroke:none;stroke-width:9.56254;stroke-linecap:butt;stroke-linejoin:miter;stroke-miterlimit:4;stroke-dasharray:none;stroke-dashoffset:0;stroke-opacity:1;-inkscape-stroke:none;stop-color:#000000"
       d="m 385.48948,747.94005 c 0,0 19.11364,53.33136 29.06541,67.42944 9.9508,14.09709 43.9505,-23.2198 169.17033,-27.36613 125.21984,-4.14729 284.85443,16.5853 309.31737,-21.56071 21.11605,-32.92773 -10.77999,-16.58531 -38.97511,-40.63419 -28.19531,-24.04891 -32.34154,-86.24381 -32.34154,-86.24381 0,0 -12.43896,60.56067 -51.41509,72.99965 -38.97503,12.43898 -81.23395,9.29864 -196.39395,22.08188 -93.02939,10.32564 -161.93147,21.32833 -188.42742,13.29387 z"
       id="path4651"
       sodipodi:nodetypes="csssscssc" />
    <path
       style="font-variation-settings:normal;display:inline;opacity:1;vector-effect:none;fill:#000000;fill-opacity:1;stroke:none;stroke-width:9.56254;stroke-linecap:butt;stroke-linejoin:miter;stroke-miterlimit:4;stroke-dasharray:none;stroke-dashoffset:0;stroke-opacity:1;-inkscape-stroke:none;stop-color:#000000"
       d="m 545.80484,506.05216 93.4817,-11.60991 c 0,0 3.3173,49.75593 3.3173,114.43901 0,64.68308 -1.65906,132.68341 -1.65906,132.68341 l -89.64426,6.63357 c 0,0 4.77452,-62.53821 3.11638,-117.26954 -1.65814,-54.73228 -8.61206,-124.87654 -8.61206,-124.87654 z"
       id="path4653"
       sodipodi:nodetypes="ccsccsc" />
  </g>
</svg>
