<?xml version="1.0" encoding="UTF-8" standalone="no"?>
<!-- Created with Inkscape (http://www.inkscape.org/) -->

<svg
   width="1024px"
   height="1024px"
   viewBox="0 0 1024 1024"
   version="1.1"
   id="SVGRoot"
   sodipodi:docname="護.svg"
   inkscape:version="1.1.1 (3bf5ae0d25, 2021-09-20)"
   xmlns:inkscape="http://www.inkscape.org/namespaces/inkscape"
   xmlns:sodipodi="http://sodipodi.sourceforge.net/DTD/sodipodi-0.dtd"
   xmlns="http://www.w3.org/2000/svg"
   xmlns:svg="http://www.w3.org/2000/svg">
  <sodipodi:namedview
     id="namedview829"
     pagecolor="#ffffff"
     bordercolor="#999999"
     borderopacity="1"
     inkscape:pageshadow="0"
     inkscape:pageopacity="0"
     inkscape:pagecheckerboard="0"
     inkscape:document-units="px"
     showgrid="false"
     inkscape:zoom="0.5052024"
     inkscape:cx="436.45874"
     inkscape:cy="579.96558"
     inkscape:window-width="1920"
     inkscape:window-height="998"
     inkscape:window-x="-9"
     inkscape:window-y="-9"
     inkscape:window-maximized="1"
     inkscape:current-layer="layer1"
     showguides="true"
     inkscape:guide-bbox="true">
    <sodipodi:guide
       position="795.00147,942.82027"
       orientation="0,-1"
       id="guide914" />
    <sodipodi:guide
       position="789.40287,72.237674"
       orientation="0,-1"
       id="guide916" />
    <sodipodi:guide
       position="75.581126,707.67899"
       orientation="1,0"
       id="guide918" />
    <sodipodi:guide
       position="946.16372,542.52024"
       orientation="1,0"
       id="guide920" />
  </sodipodi:namedview>
  <defs
     id="defs824" />
  <g
     inkscape:label="圖層 1"
     inkscape:groupmode="layer"
     id="layer1">
    <path
       style="font-variation-settings:normal;display:inline;vector-effect:none;fill:#000000;fill-opacity:1;stroke:none;stroke-width:9.36244;stroke-linecap:butt;stroke-linejoin:miter;stroke-miterlimit:4;stroke-dasharray:none;stroke-dashoffset:0;stroke-opacity:1;-inkscape-stroke:none;stop-color:#000000"
       d="m 39.388957,432.45064 c 0,0 50.52154,32.15011 80.374583,36.74303 29.85397,4.59284 90.70975,-27.55727 165.34328,-55.11455 74.63446,-27.55719 190.60501,-41.33578 190.60501,-51.66973 0,-10.33398 -18.3719,-42.48408 -109.08073,-20.66794 -90.70976,21.81614 -287.054852,101.04316 -327.242143,90.70919 z"
       id="path1191" />
    <path
       style="font-variation-settings:normal;display:inline;vector-effect:none;fill:#000000;fill-opacity:1;stroke:none;stroke-width:9.36244;stroke-linecap:butt;stroke-linejoin:miter;stroke-miterlimit:4;stroke-dasharray:none;stroke-dashoffset:0;stroke-opacity:1;-inkscape-stroke:none;stop-color:#000000"
       d="m 438.96804,218.88205 c 0,37.89124 -48.22493,144.67554 -48.22493,144.67554 l -93.00542,12.63037 c 0,0 71.18908,-88.41278 56.26257,-118.26646 -14.92653,-29.85369 -94.42196,-39.13467 -83.81994,-69.50798 6.97126,-19.97146 36.34962,-59.09246 52.81811,-55.64783 48.63877,9.51147 114.70474,48.30806 115.96961,86.11636 z"
       id="path1193"
       sodipodi:nodetypes="cccsscc" />
    <path
       style="font-variation-settings:normal;display:inline;vector-effect:none;fill:#000000;fill-opacity:1;stroke:none;stroke-width:9.36244;stroke-linecap:butt;stroke-linejoin:miter;stroke-miterlimit:4;stroke-dasharray:none;stroke-dashoffset:0;stroke-opacity:1;-inkscape-stroke:none;stop-color:#000000"
       d="m 255.45601,454.87207 c 0,0 17.86259,24.35739 45.4677,37.34793 27.60512,12.99066 117.72693,-32.47648 122.59912,-41.40749 4.87128,-8.9311 -17.05086,-33.28849 -36.53687,-32.47658 -19.48508,0.81173 -99.05262,42.2195 -131.52995,36.53614 z"
       id="path1456" />
    <path
       style="font-variation-settings:normal;display:inline;vector-effect:none;fill:#000000;fill-opacity:1;stroke:none;stroke-width:9.36244;stroke-linecap:butt;stroke-linejoin:miter;stroke-miterlimit:4;stroke-dasharray:none;stroke-dashoffset:0;stroke-opacity:1;-inkscape-stroke:none;stop-color:#000000"
       d="m 339.64765,478.95354 c 0,0 -60.28187,9.75977 -81.52334,56.26267 0,0 24.12511,17.89731 55.78977,8.9663 31.66467,-8.9311 68.79139,-60.06203 100.94196,-53.17269 32.14964,6.88924 33.29842,21.24204 35.59502,32.72422 2.29566,11.48217 -177.97414,71.76356 -180.27074,141.80493 -2.29661,70.04135 66.59681,194.04885 53.96596,288.20278 -34.80016,-14.2177 -55.63624,-75.62969 -88.95338,-162.44179 -22.80031,-59.40909 -41.40626,-118.10236 -25.86838,-138.39138 43.64109,-47.27821 55.11474,-66.59665 55.11474,-66.59665 -25.26076,-4.59291 -43.63265,6.88925 -55.11474,-1.14829 -11.48208,-8.03746 -5.74103,-60.8555 1.14877,-66.59664 6.88888,-5.74105 48.22493,-2.29641 66.59683,-50.52163 z"
       id="path1458"
       sodipodi:nodetypes="ccsssscsccssc" />
    <path
       style="font-variation-settings:normal;display:inline;vector-effect:none;fill:#000000;fill-opacity:1;stroke:none;stroke-width:9.36244;stroke-linecap:butt;stroke-linejoin:miter;stroke-miterlimit:4;stroke-dasharray:none;stroke-dashoffset:0;stroke-opacity:1;-inkscape-stroke:none;stop-color:#000000"
       d="m 370.07553,782.65723 c 9.18549,-39.03945 70.04128,-120.5629 62.00363,-146.97197 -8.03765,-26.40897 -58.55918,-29.85369 -58.55918,-29.85369 -31.00181,37.89125 -79.22674,41.33587 -79.22674,41.33587 0,0 9.18548,42.48408 19.51973,63.15202 10.33331,20.66793 18.37095,9.18575 18.37095,9.18575 0,0 -5.74104,48.22522 -10.33425,80.37534 z"
       id="path1460"
       sodipodi:nodetypes="ccsccsc" />
    <path
       style="font-variation-settings:normal;display:inline;vector-effect:none;fill:#000000;fill-opacity:1;stroke:none;stroke-width:9.36244;stroke-linecap:butt;stroke-linejoin:miter;stroke-miterlimit:4;stroke-dasharray:none;stroke-dashoffset:0;stroke-opacity:1;-inkscape-stroke:none;stop-color:#000000"
       d="m 300.60819,853.84669 c 0,0 112.52516,-45.92869 106.21019,-54.54035 -6.31589,-8.61165 -21.81632,-26.40898 -38.46552,-27.55718 -16.6492,-1.14822 -75.20839,23.53846 -75.20839,23.53846 z"
       id="path1514" />
    <path
       style="font-variation-settings:normal;display:inline;vector-effect:none;fill:#000000;fill-opacity:1;stroke:none;stroke-width:9.36244;stroke-linecap:butt;stroke-linejoin:miter;stroke-miterlimit:4;stroke-dasharray:none;stroke-dashoffset:0;stroke-opacity:1;-inkscape-stroke:none;stop-color:#000000"
       d="m 550.04201,255.63398 c 7.30738,-138.83704 -55.07166,-162.063179 -85.11197,-141.76535 -30.04122,20.29786 -16.23819,51.96243 -16.23819,51.96243 0,0 53.44729,-40.10311 58.31856,97.1102 z"
       id="path1686"
       sodipodi:nodetypes="ccsc" />
    <path
       style="font-variation-settings:normal;display:inline;vector-effect:none;fill:#000000;fill-opacity:1;stroke:none;stroke-width:9.36244;stroke-linecap:butt;stroke-linejoin:miter;stroke-miterlimit:4;stroke-dasharray:none;stroke-dashoffset:0;stroke-opacity:1;-inkscape-stroke:none;stop-color:#000000"
       d="M 701.91089,229.79012 C 709.9476,128.74695 789.17528,114.39416 779.98886,90.281576 770.80338,66.169022 674.35352,66.169022 674.35352,66.169022 c 0,0 -35.59501,79.801148 -33.29841,171.658638 z"
       id="path1688"
       sodipodi:nodetypes="cscc" />
    <path
       style="font-variation-settings:normal;display:inline;vector-effect:none;fill:#000000;fill-opacity:1;stroke:none;stroke-width:9.36244;stroke-linecap:butt;stroke-linejoin:miter;stroke-miterlimit:4;stroke-dasharray:none;stroke-dashoffset:0;stroke-opacity:1;-inkscape-stroke:none;stop-color:#000000"
       d="m 389.59527,213.141 c 0,0 59.70701,102.19138 98.74645,107.93252 39.03947,5.74103 85.4509,-33.70512 190.60407,-37.89126 105.2543,-4.19016 161.64233,8.38593 172.88098,-6.92155 7.42909,-10.12013 18.9196,-38.64736 -23.67009,-53.37689 -12.33032,-4.26449 -127.57245,-1.89045 -230.31104,15.73038 -80.33713,13.77859 -147.44327,40.04583 -208.25037,-25.4732 z"
       id="path1690"
       sodipodi:nodetypes="csssssc" />
    <path
       style="font-variation-settings:normal;display:inline;vector-effect:none;fill:#000000;fill-opacity:1;stroke:none;stroke-width:9.36244;stroke-linecap:butt;stroke-linejoin:miter;stroke-miterlimit:4;stroke-dasharray:none;stroke-dashoffset:0;stroke-opacity:1;-inkscape-stroke:none;stop-color:#000000"
       d="m 369.12433,635.9286 c 130.90171,-83.16131 211.82774,-258.38524 200.4608,-289.23789 -11.36692,-30.85276 -56.97317,-61.4269 -56.97317,-61.4269 0,0 -2.07284,42.63996 -8.29137,86.99008 -11.25364,80.26304 -130.80061,233.57768 -135.19626,263.67471 z"
       id="path2352"
       sodipodi:nodetypes="cscsc" />
    <path
       style="font-variation-settings:normal;display:inline;vector-effect:none;fill:#000000;fill-opacity:1;stroke:none;stroke-width:9.36244;stroke-linecap:butt;stroke-linejoin:miter;stroke-miterlimit:4;stroke-dasharray:none;stroke-dashoffset:0;stroke-opacity:1;-inkscape-stroke:none;stop-color:#000000"
       d="m 499.82475,704.57842 c 18.37096,-42.48409 32.14966,-246.86693 18.37096,-277.86881 -13.77869,-31.00191 -87.26439,-47.07701 -87.26439,-47.07701 56.26259,94.15391 21.81634,301.98136 68.89343,324.94582 z"
       id="path3014"
       sodipodi:nodetypes="cscc" />
    <path
       style="font-variation-settings:normal;display:inline;vector-effect:none;fill:#000000;fill-opacity:1;stroke:none;stroke-width:9.36244;stroke-linecap:butt;stroke-linejoin:miter;stroke-miterlimit:4;stroke-dasharray:none;stroke-dashoffset:0;stroke-opacity:1;-inkscape-stroke:none;stop-color:#000000"
       d="m 599.71905,276.29302 c 27.55737,24.11255 50.52154,24.11255 63.1524,41.33577 12.62991,17.22331 6.88886,56.26276 6.88886,56.26276 0,0 -19.94103,-9.49576 -41.24711,-15.64312 -19.73038,-5.69226 -28.21741,-27.74892 -28.79415,-81.95541 z"
       id="path3334"
       sodipodi:nodetypes="cscsc" />
    <path
       style="font-variation-settings:normal;display:inline;vector-effect:none;fill:#000000;fill-opacity:1;stroke:none;stroke-width:9.36244;stroke-linecap:butt;stroke-linejoin:miter;stroke-miterlimit:4;stroke-dasharray:none;stroke-dashoffset:0;stroke-opacity:1;-inkscape-stroke:none;stop-color:#000000"
       d="m 552.61668,372.05689 c 58.45806,-31.66457 69.01234,-59.26959 69.01234,-59.26959 l 17.86256,38.15995 c 0,0 -9.74348,-4.87166 -86.8749,21.10964 z"
       id="path3692" />
    <path
       style="font-variation-settings:normal;display:inline;vector-effect:none;fill:#000000;fill-opacity:1;stroke:none;stroke-width:9.36244;stroke-linecap:butt;stroke-linejoin:miter;stroke-miterlimit:4;stroke-dasharray:none;stroke-dashoffset:0;stroke-opacity:1;-inkscape-stroke:none;stop-color:#000000"
       d="m 525.01156,405.34538 c 0,0 21.10947,26.79312 42.21986,27.60503 21.10948,0.81172 122.59821,-35.72412 164.00635,-33.2884 41.40722,2.43574 53.58585,8.931 72.26015,3.24764 18.67336,-5.68336 36.23542,-24.87598 24.35729,-37.34804 -16.23819,-17.0501 -48.31013,-30.4467 -113.26196,-29.63489 0,0 7.51053,4.46568 4.8722,13.39669 -85.65686,16.2383 -194.45389,56.02197 -194.45389,56.02197 z"
       id="path3694"
       sodipodi:nodetypes="cssssccc" />
    <path
       style="font-variation-settings:normal;display:inline;vector-effect:none;fill:#000000;fill-opacity:1;stroke:none;stroke-width:9.36244;stroke-linecap:butt;stroke-linejoin:miter;stroke-miterlimit:4;stroke-dasharray:none;stroke-dashoffset:0;stroke-opacity:1;-inkscape-stroke:none;stop-color:#000000"
       d="m 522.78893,473.2124 c 0,0 24.68591,26.98308 44.77955,35.59473 20.09363,8.61166 62.00455,-12.05627 101.61791,-18.37142 39.61338,-6.31523 85.5417,-4.59291 104.48751,-18.37151 18.94583,-13.7786 -25.02295,-33.77394 -39.37555,-33.19983 -14.35261,0.57392 -33.23195,12.36141 -100.56746,25.12155 -63.7235,12.07576 -110.94196,9.22648 -110.94196,9.22648 z"
       id="path4574"
       sodipodi:nodetypes="csssssc" />
    <path
       style="font-variation-settings:normal;display:inline;vector-effect:none;fill:#000000;fill-opacity:1;stroke:none;stroke-width:9.36244;stroke-linecap:butt;stroke-linejoin:miter;stroke-miterlimit:4;stroke-dasharray:none;stroke-dashoffset:0;stroke-opacity:1;-inkscape-stroke:none;stop-color:#000000"
       d="m 553.79073,550.7171 c 0,0 9.7594,27.6966 22.96417,32.86354 13.20383,5.16703 63.349,-11.67916 98.03304,-16.1736 33.71223,-4.36841 66.16241,-3.48563 73.62521,-8.07827 7.46372,-4.59284 22.05412,-19.89676 15.73916,-33.67544 -6.31589,-13.77859 -53.33868,5.22255 -106.30849,13.44229 -51.86598,8.04833 -104.05309,11.62148 -104.05309,11.62148 z"
       id="path4932"
       sodipodi:nodetypes="csssssc" />
    <path
       style="font-variation-settings:normal;display:inline;vector-effect:none;fill:#000000;fill-opacity:1;stroke:none;stroke-width:9.36244;stroke-linecap:butt;stroke-linejoin:miter;stroke-miterlimit:4;stroke-dasharray:none;stroke-dashoffset:0;stroke-opacity:1;-inkscape-stroke:none;stop-color:#000000"
       d="m 721.43062,606.40568 c 55.84127,-7.44715 74.63352,-9.75978 89.56099,-43.63229 12.05599,54.54036 59.13309,42.48409 62.57754,47.07701 3.44443,4.59283 10.33425,33.29822 -17.22314,35.59473 -159.25489,-11.52244 -287.08294,40.28794 -332.81934,28.08625 -42.21892,-13.80255 -91.07301,-54.6529 -91.07301,-54.6529 0,0 82.7236,15.03402 288.97696,-12.4728 z"
       id="path4934"
       sodipodi:nodetypes="scscccs" />
    <path
       style="font-variation-settings:normal;display:inline;vector-effect:none;fill:#000000;fill-opacity:1;stroke:none;stroke-width:9.36244;stroke-linecap:butt;stroke-linejoin:miter;stroke-miterlimit:4;stroke-dasharray:none;stroke-dashoffset:0;stroke-opacity:1;-inkscape-stroke:none;stop-color:#000000"
       d="m 691.57664,613.86912 c 3.44444,-115.97006 -4.5932,-217.01321 -4.5932,-217.01321 l -73.48569,13.77858 c 0,0 13.77867,91.85751 8.03763,214.71682 z"
       id="path5368" />
    <path
       style="font-variation-settings:normal;display:inline;vector-effect:none;fill:#000000;fill-opacity:1;stroke:none;stroke-width:9.36244;stroke-linecap:butt;stroke-linejoin:miter;stroke-miterlimit:4;stroke-dasharray:none;stroke-dashoffset:0;stroke-opacity:1;-inkscape-stroke:none;stop-color:#000000"
       d="m 336.77713,859.58782 c 126.30384,137.78617 400.72784,-111.37712 392.6902,-152.71298 -8.03671,-41.33587 -93.00449,-63.15202 -93.00449,-63.15202 0,0 5.06788,33.37219 -3.44538,59.70739 -21.80883,67.46285 -167.64082,194.04868 -296.24033,156.15761 z"
       id="path5370"
       sodipodi:nodetypes="cscsc" />
    <path
       style="font-variation-settings:normal;display:inline;vector-effect:none;fill:#000000;fill-opacity:1;stroke:none;stroke-width:9.36244;stroke-linecap:butt;stroke-linejoin:miter;stroke-miterlimit:4;stroke-dasharray:none;stroke-dashoffset:0;stroke-opacity:1;-inkscape-stroke:none;stop-color:#000000"
       d="m 944.18432,899.77549 c 0,0 -158.45442,29.8537 -196.34509,13.7786 C 698.1472,892.4728 549.19752,722.94983 514.75127,729.83919 c -34.44718,6.88934 -37.89162,55.11446 -53.96691,68.89305 -16.07435,13.77868 -28.7052,-9.18567 -24.11198,-25.26077 4.59227,-16.075 43.62891,-73.44872 88.4122,-70.04126 60.85298,4.63009 155.22907,89.17403 236.53332,126.30402 59.29039,27.0767 182.56642,70.04126 182.56642,70.04126 z"
       id="path5766"
       sodipodi:nodetypes="csssssac" />
  </g>
</svg>
