<?xml version="1.0" encoding="UTF-8" standalone="no"?>
<!-- Created with Inkscape (http://www.inkscape.org/) -->

<svg
   width="1024px"
   height="1024px"
   viewBox="0 0 1024 1024"
   version="1.1"
   id="SVGRoot"
   sodipodi:docname="靈.svg"
   inkscape:version="1.1.1 (3bf5ae0d25, 2021-09-20)"
   xmlns:inkscape="http://www.inkscape.org/namespaces/inkscape"
   xmlns:sodipodi="http://sodipodi.sourceforge.net/DTD/sodipodi-0.dtd"
   xmlns="http://www.w3.org/2000/svg"
   xmlns:svg="http://www.w3.org/2000/svg">
  <sodipodi:namedview
     id="namedview829"
     pagecolor="#ffffff"
     bordercolor="#999999"
     borderopacity="1"
     inkscape:pageshadow="0"
     inkscape:pageopacity="0"
     inkscape:pagecheckerboard="0"
     inkscape:document-units="px"
     showgrid="false"
     inkscape:zoom="0.2526012"
     inkscape:cx="316.70475"
     inkscape:cy="530.48046"
     inkscape:window-width="1803"
     inkscape:window-height="1028"
     inkscape:window-x="99"
     inkscape:window-y="0"
     inkscape:window-maximized="0"
     inkscape:current-layer="layer1"
     showguides="true"
     inkscape:guide-bbox="true">
    <sodipodi:guide
       position="795.00147,942.82027"
       orientation="0,-1"
       id="guide914" />
    <sodipodi:guide
       position="789.40287,72.237674"
       orientation="0,-1"
       id="guide916" />
    <sodipodi:guide
       position="75.581126,707.67899"
       orientation="1,0"
       id="guide918" />
    <sodipodi:guide
       position="946.16372,542.52024"
       orientation="1,0"
       id="guide920" />
  </sodipodi:namedview>
  <defs
     id="defs824" />
  <g
     inkscape:label="圖層 1"
     inkscape:groupmode="layer"
     id="layer1">
    <path
       style="font-variation-settings:normal;display:inline;vector-effect:none;fill:#000000;fill-opacity:1;stroke:none;stroke-width:8.2161;stroke-linecap:butt;stroke-linejoin:miter;stroke-miterlimit:4;stroke-dasharray:none;stroke-dashoffset:0;stroke-opacity:1;-inkscape-stroke:none;stop-color:#000000"
       d="m 271.81556,264.88409 c -34.19954,38.47523 -89.52274,88.84615 -94.76295,107.58805 -6.01011,21.49822 9.26284,91.91298 42.75005,106.16309 33.48806,14.25002 15.60568,-65.09214 23.51286,-97.61306 9.41731,-38.73288 8.54969,-61.27525 28.50004,-116.13808 z"
       id="path8598"
       sodipodi:nodetypes="cssac" />
    <path
       style="font-variation-settings:normal;display:inline;vector-effect:none;fill:#000000;fill-opacity:1;stroke:none;stroke-width:8.2161;stroke-linecap:butt;stroke-linejoin:miter;stroke-miterlimit:4;stroke-dasharray:none;stroke-dashoffset:0;stroke-opacity:1;-inkscape-stroke:none;stop-color:#000000"
       d="m 685.804,172.77459 c -65.8661,-2.69201 -125.70321,59.45013 -188.12511,64.19953 -73.05106,5.55821 -138.66081,-70.64318 -141.19795,-84.66569 -2.897,-16.01338 22.62799,-32.72453 36.878,-22.7494 14.25003,9.97498 43.05817,52.722 102.18294,36.287 84.32851,-23.44107 89.7758,-66.975359 120.41284,-62.70034 8.17585,-2.07194 129.25337,74.3125 69.84928,69.6289 z"
       id="path9298"
       sodipodi:nodetypes="csssscc" />
    <path
       id="path9922"
       style="font-variation-settings:normal;display:inline;vector-effect:none;fill:#000000;fill-opacity:1;stroke:none;stroke-width:8.2161;stroke-linecap:butt;stroke-linejoin:miter;stroke-miterlimit:4;stroke-dasharray:none;stroke-dashoffset:0;stroke-opacity:1;-inkscape-stroke:none;stop-color:#000000"
       d="m 567.89377,247.27211 c -136.68156,39.18271 -188.04539,55.41456 -236.87125,42.79091 -30.02498,-7.99732 -85.7458,48.25576 -118.68994,93.46836 l 16.73622,33.83353 c 29.69546,-67.90262 70.92063,-121.22511 121.16872,-73.13991 13.7209,13.13026 128.21075,-63.74698 257.9497,-79.09245 187.41933,-22.16796 217.64969,40.29803 97.73966,92.69496 0,0 28.8361,-4.60898 62.12283,-1.14005 36.32261,3.78565 46.52372,28.99783 70.81466,18.16844 76.48047,-34.09653 32.59247,-129.58884 -75.50113,-146.00618 -65.52182,-9.95144 -138.1276,2.20626 -195.46947,18.42198 z"
       sodipodi:nodetypes="ccccsscssscc" />
    <path
       style="font-variation-settings:normal;display:inline;vector-effect:none;fill:#000000;fill-opacity:1;stroke:none;stroke-width:8.2161;stroke-linecap:butt;stroke-linejoin:miter;stroke-miterlimit:4;stroke-dasharray:none;stroke-dashoffset:0;stroke-opacity:1;-inkscape-stroke:none;stop-color:#000000"
       d="m 372.9493,470.04323 c -66.51597,-31.25762 -65.50868,-73.34594 -65.50868,-84.74605 0,-11.40001 52.0129,-4.98751 61.27574,-11.40001 9.26203,-6.41259 27.7877,-17.10013 7.83735,-59.13784 0,0 83.44282,21.77145 96.98132,68.79669 -41.68114,6.52221 -64.85713,-13.63046 -94.07857,2.4917 -29.22141,16.12205 -50.38118,61.46562 124.9465,-20.15271 v 13.09926 C 434.8766,417.2843 395.66357,471.41293 372.9493,470.04323 Z"
       id="path10940"
       sodipodi:nodetypes="ccsscsc" />
    <path
       style="font-variation-settings:normal;display:inline;vector-effect:none;fill:#000000;fill-opacity:1;stroke:none;stroke-width:8.2161;stroke-linecap:butt;stroke-linejoin:miter;stroke-miterlimit:4;stroke-dasharray:none;stroke-dashoffset:0;stroke-opacity:1;-inkscape-stroke:none;stop-color:#000000"
       d="m 564.65498,262.7465 c 0,0 45.44002,0.37465 73.38794,12.11261 35.62506,14.9626 37.04972,48.45023 37.04972,48.45023 0,0 -97.51865,12.77539 -95.85652,46.31273 1.91352,38.61234 50.25628,-14.25002 79.46947,-11.40002 29.21241,2.85001 67.68763,45.60023 65.54979,54.15024 -2.137,8.55011 -124.26949,24.37449 -150.33837,-7.12484 -34.20039,-41.32521 19.23719,-69.11283 20.66269,-91.91295 1.42467,-22.80012 -29.92472,-50.588 -29.92472,-50.588 z"
       id="path11396"
       sodipodi:nodetypes="cscsssssc" />
    <path
       style="font-variation-settings:normal;display:inline;vector-effect:none;fill:#000000;fill-opacity:1;stroke:none;stroke-width:8.2161;stroke-linecap:butt;stroke-linejoin:miter;stroke-miterlimit:4;stroke-dasharray:none;stroke-dashoffset:0;stroke-opacity:1;-inkscape-stroke:none;stop-color:#000000"
       d="m 536.29214,460.0743 c 2.97176,-115.73304 4.38248,-191.77969 6.98782,-250.05303 l -57.71325,8.55001 c 3.84431,61.91405 3.43762,119.26233 4.51969,204.45025 0,0 0.50939,35.5069 46.20574,37.05277 z"
       id="path12210"
       sodipodi:nodetypes="ccccc" />
    <path
       style="font-variation-settings:normal;display:inline;vector-effect:none;fill:#000000;fill-opacity:1;stroke:none;stroke-width:8.2161;stroke-linecap:butt;stroke-linejoin:miter;stroke-miterlimit:4;stroke-dasharray:none;stroke-dashoffset:0;stroke-opacity:1;-inkscape-stroke:none;stop-color:#000000"
       d="m 677.71605,418.29193 c 0,0 -61.46554,2.01524 -125.95378,26.19845 0,0 51.6333,-33.15052 61.46553,-46.35109"
       id="path13036"
       sodipodi:nodetypes="ccc" />
    <path
       style="font-variation-settings:normal;display:inline;vector-effect:none;fill:#000000;fill-opacity:1;stroke:none;stroke-width:8.21574;stroke-linecap:butt;stroke-linejoin:miter;stroke-miterlimit:4;stroke-dasharray:none;stroke-dashoffset:0;stroke-opacity:1;-inkscape-stroke:none;stop-color:#000000"
       d="m 354.46307,628.97351 c -11.39657,-22.8001 -56.99434,-66.97534 -55.57213,-104.02555 1.42878,-37.05022 38.47439,-74.10044 38.47439,-74.10044 -21.37421,38.47522 39.89415,129.6757 17.09774,178.12599 z"
       id="path13432"
       sodipodi:nodetypes="cccc" />
    <path
       style="font-variation-settings:normal;display:inline;vector-effect:none;fill:#000000;fill-opacity:1;stroke:none;stroke-width:8.2161;stroke-linecap:butt;stroke-linejoin:miter;stroke-miterlimit:4;stroke-dasharray:none;stroke-dashoffset:0;stroke-opacity:1;-inkscape-stroke:none;stop-color:#000000"
       d="m 340.31738,547.40227 c 9.28339,-40.04343 35.52399,-38.12941 54.04885,-50.95451 18.52487,-12.82502 15.67553,-38.47514 39.89991,-34.20014 24.2252,4.27502 38.47522,19.95011 37.05054,25.65012 -1.42468,5.70002 -34.20037,17.10009 -35.62503,35.62523 -1.42551,18.52512 0,47.02523 0,47.02523 l -39.89992,5.7 c 0,0 9.87331,-37.29473 -0.0987,-47.26974 -9.97435,-9.9751 -35.42212,-10.07641 -55.37246,18.42381 z"
       id="path13951"
       sodipodi:nodetypes="cssssccscc" />
    <path
       style="font-variation-settings:normal;display:inline;vector-effect:none;fill:#000000;fill-opacity:1;stroke:none;stroke-width:8.2161;stroke-linecap:butt;stroke-linejoin:miter;stroke-miterlimit:4;stroke-dasharray:none;stroke-dashoffset:0;stroke-opacity:1;-inkscape-stroke:none;stop-color:#000000"
       d="m 351.24318,608.73444 c 62.47281,-23.1755 116.88483,-26.19844 116.88483,-37.28239 0,-11.08394 -21.15976,-20.15264 -34.25953,-22.16788 -13.09894,-2.01525 -19.14437,13.09919 -87.66343,33.25183 z"
       id="path14613" />
    <path
       style="font-variation-settings:normal;display:inline;vector-effect:none;fill:#000000;fill-opacity:1;stroke:none;stroke-width:8.2161;stroke-linecap:butt;stroke-linejoin:miter;stroke-miterlimit:4;stroke-dasharray:none;stroke-dashoffset:0;stroke-opacity:1;-inkscape-stroke:none;stop-color:#000000"
       d="m 450.65399,472.22263 c 0,0 37.76289,14.2501 47.02574,32.7752 9.26201,18.52514 18.81488,50.33215 18.81488,77.53817 0,27.20608 -41.31307,-18.13731 -45.34306,-28.21372 -4.03084,-10.07631 2.33337,-55.37493 -20.49756,-82.09965 z"
       id="path14615" />
    <path
       style="font-variation-settings:normal;display:inline;vector-effect:none;fill:#000000;fill-opacity:1;stroke:none;stroke-width:8.2161;stroke-linecap:butt;stroke-linejoin:miter;stroke-miterlimit:4;stroke-dasharray:none;stroke-dashoffset:0;stroke-opacity:1;-inkscape-stroke:none;stop-color:#000000"
       d="m 571.91473,547.26892 c 1.00729,-60.45802 57.43473,-76.58007 54.412,-84.64113 -3.02268,-8.06108 -15.11434,-20.15263 -32.24411,-24.18322 -17.12976,-4.0305 -35.26764,28.21371 -111.84753,35.26715 0,0 12.09164,11.08395 24.18328,13.09918 12.09166,2.01526 28.21412,-7.05336 36.27496,0 8.06082,7.05347 -1.00814,47.35875 -9.06894,62.47327 z"
       id="path14617" />
    <path
       style="font-variation-settings:normal;display:inline;vector-effect:none;fill:#000000;fill-opacity:1;stroke:none;stroke-width:8.2161;stroke-linecap:butt;stroke-linejoin:miter;stroke-miterlimit:4;stroke-dasharray:none;stroke-dashoffset:0;stroke-opacity:1;-inkscape-stroke:none;stop-color:#000000"
       d="m 505.91471,571.45205 c 59.95379,-5.03812 86.1525,8.06106 89.67885,-6.04574 3.52718,-14.1069 -7.55717,-25.69465 -18.13707,-29.22133 -10.57987,-3.52678 -20.65613,7.55716 -71.03812,12.59537 z"
       id="path14619" />
    <path
       style="font-variation-settings:normal;display:inline;vector-effect:none;fill:#000000;fill-opacity:1;stroke:none;stroke-width:8.2161;stroke-linecap:butt;stroke-linejoin:miter;stroke-miterlimit:4;stroke-dasharray:none;stroke-dashoffset:0;stroke-opacity:1;-inkscape-stroke:none;stop-color:#000000"
       d="m 632.34177,563.42311 c -37.76207,-22.08762 -27.78691,-83.36297 -58.42476,-107.58808 0,0 42.03771,12.82509 51.30056,20.6627 9.26283,7.83751 10.68752,22.08751 10.68752,52.01272 0,29.92514 -3.56332,34.91266 -3.56332,34.91266 z"
       id="path891"
       sodipodi:nodetypes="ccssc" />
    <path
       style="font-variation-settings:normal;display:inline;vector-effect:none;fill:#000000;fill-opacity:1;stroke:none;stroke-width:8.2161;stroke-linecap:butt;stroke-linejoin:miter;stroke-miterlimit:4;stroke-dasharray:none;stroke-dashoffset:0;stroke-opacity:1;-inkscape-stroke:none;stop-color:#000000"
       d="m 706.93663,544.24597 -36.27412,-1.00764 c 0,0 15.11437,-54.41217 5.03732,-61.46562 -12.65858,-4.55469 -22.81616,-11.7326 -38.28955,-29.22133 53.40473,4.03049 66.50367,-37.2824 89.67885,-29.22134 23.176,8.06107 53.4047,30.22897 53.4047,46.35109 0,16.12216 -52.3974,12.09158 -57.43553,20.15265 -5.03812,8.06107 -16.12167,54.41219 -16.12167,54.41219 z"
       id="path1059"
       sodipodi:nodetypes="ccccsssc" />
    <path
       style="font-variation-settings:normal;display:inline;vector-effect:none;fill:#000000;fill-opacity:1;stroke:none;stroke-width:8.2161;stroke-linecap:butt;stroke-linejoin:miter;stroke-miterlimit:4;stroke-dasharray:none;stroke-dashoffset:0;stroke-opacity:1;-inkscape-stroke:none;stop-color:#000000"
       d="m 620.22955,539.19798 c 0,0 6.05694,29.56895 12.82535,34.91271 6.76845,5.34376 37.05058,-3.56249 59.13792,-3.56249 22.08738,0 29.92473,3.56249 34.91273,-1.425 4.98718,-4.9876 -5.70033,-35.62525 -33.48803,-41.32525 -27.78773,-5.70007 -48.4496,9.26254 -73.38797,11.40003 z"
       id="path1650" />
    <path
       style="font-variation-settings:normal;display:inline;vector-effect:none;fill:#000000;fill-opacity:1;stroke:none;stroke-width:8.2161;stroke-linecap:butt;stroke-linejoin:miter;stroke-miterlimit:4;stroke-dasharray:none;stroke-dashoffset:0;stroke-opacity:1;-inkscape-stroke:none;stop-color:#000000"
       d="m 337.81229,628.55616 c 0,0 27.71047,35.77095 52.90108,42.82441 25.19058,7.05345 83.72297,-18.2387 193.2922,-32.41716 55.40533,-7.16953 118.90107,14.10689 125.95461,-9.0687 7.05351,-23.17549 -20.52304,-32.92202 -37.28225,-38.28995 -25.02874,-8.01661 -102.43353,7.58561 -162.88603,19.08817 -119.32339,22.09229 -171.97961,17.86323 -171.97961,17.86323 z"
       id="path1704"
       sodipodi:nodetypes="csssscc" />
    <path
       style="font-variation-settings:normal;display:inline;vector-effect:none;fill:#000000;fill-opacity:1;stroke:none;stroke-width:8.2161;stroke-linecap:butt;stroke-linejoin:miter;stroke-miterlimit:4;stroke-dasharray:none;stroke-dashoffset:0;stroke-opacity:1;-inkscape-stroke:none;stop-color:#000000"
       d="m 399.05927,643.34582 c 0,0 54.80968,29.35698 55.38072,50.24196 0.59976,21.85988 -40.61307,57.1016 -73.38794,108.40182 -32.77574,51.30033 -55.02494,65.67258 -68.91839,66.38511 -19.35717,0.99256 -101.59384,-104.0255 -54.56811,-152.47582 47.02491,-48.45023 175.27592,29.92521 188.10127,47.02533 12.82452,17.10003 15.6747,79.80043 1.42468,89.77546 -14.25003,9.97509 -138.34287,-180.39243 -179.30593,-121.88878 -36.06379,51.50556 56.45207,118.0608 131.2737,-87.46508 z"
       id="path1986"
       sodipodi:nodetypes="csssssssc" />
    <path
       style="font-variation-settings:normal;display:inline;vector-effect:none;fill:#000000;fill-opacity:1;stroke:none;stroke-width:8.2161;stroke-linecap:butt;stroke-linejoin:miter;stroke-miterlimit:4;stroke-dasharray:none;stroke-dashoffset:0;stroke-opacity:1;-inkscape-stroke:none;stop-color:#000000"
       d="m 525.46659,791.42434 c 0,0 54.15076,-45.60024 61.27575,-18.52511 7.12502,27.07514 -45.60021,35.62522 -45.60021,35.62522 0,0 236.46622,14.79419 223.7263,-22.80011 -22.4267,-66.17993 -156.75022,-49.87524 -156.75022,-49.87524 52.72523,-54.15033 102.59949,-48.45032 106.87432,-59.85035 4.27568,-11.40008 -11.39985,-22.80019 -25.64988,-38.47528 -14.25001,-15.67505 -52.72522,-22.80012 -52.72522,-22.80012 0,0 -47.02492,84.07544 -128.25102,145.35078 z"
       id="path2344"
       sodipodi:nodetypes="cssccscsc" />
    <path
       style="font-variation-settings:normal;display:inline;vector-effect:none;fill:#000000;fill-opacity:1;stroke:none;stroke-width:8.2161;stroke-linecap:butt;stroke-linejoin:miter;stroke-miterlimit:4;stroke-dasharray:none;stroke-dashoffset:0;stroke-opacity:1;-inkscape-stroke:none;stop-color:#000000"
       d="m 441.26544,816.88148 c 0,0 -3.32013,-42.62315 38.6683,-96.1299 0,0 -52.0236,43.0962 -85.0121,45.04302 z"
       id="path2805"
       sodipodi:nodetypes="ccc" />
    <path
       style="font-variation-settings:normal;display:inline;vector-effect:none;fill:#000000;fill-opacity:1;stroke:none;stroke-width:8.2161;stroke-linecap:butt;stroke-linejoin:miter;stroke-miterlimit:4;stroke-dasharray:none;stroke-dashoffset:0;stroke-opacity:1;-inkscape-stroke:none;stop-color:#000000"
       d="M 479.86636,868.37479 C 485.56671,765.77423 478.4417,647.49856 478.4417,647.49856 l 64.12509,-17.10011 c 0,0 -2.85017,112.57565 -1.42466,225.15123 z"
       id="path3371"
       sodipodi:nodetypes="ccccc" />
    <path
       style="font-variation-settings:normal;display:inline;vector-effect:none;fill:#000000;fill-opacity:1;stroke:none;stroke-width:8.2161;stroke-linecap:butt;stroke-linejoin:miter;stroke-miterlimit:4;stroke-dasharray:none;stroke-dashoffset:0;stroke-opacity:1;-inkscape-stroke:none;stop-color:#000000"
       d="m 636.99372,803.62494 c 7.05353,54.41208 60.11236,40.54979 68.17318,49.61839 8.06081,9.06871 12.75305,32.51848 -16.36732,43.60241 -20.67502,7.86955 -67.85276,-5.86409 -155.17519,3.09452 -84.04671,8.62248 -110.83945,26.19845 -137.03815,22.1679 -26.19871,-4.03051 -96.315,-56.49907 -96.315,-56.49907 53.6052,1.83859 128.25431,1.21054 206.6705,-12.19691 100.68103,-17.21423 119.4187,-36.65174 130.05198,-49.78724 z"
       id="path3373"
       sodipodi:nodetypes="csssscsc" />
    <path
       style="font-variation-settings:normal;display:inline;vector-effect:none;fill:#000000;fill-opacity:1;stroke:none;stroke-width:8.2161;stroke-linecap:butt;stroke-linejoin:miter;stroke-miterlimit:4;stroke-dasharray:none;stroke-dashoffset:0;stroke-opacity:1;-inkscape-stroke:none;stop-color:#000000"
       d="m 353.25777,281.25386 c 53.4047,-33.25182 132.30894,-62.68258 132.30894,-62.68258 l -36.58387,-20.95091 c 0,0 -58.44282,44.33583 -95.72507,83.63349 z"
       id="path7498"
       sodipodi:nodetypes="ccc" />
  </g>
</svg>
